<svg xmlns="http://www.w3.org/2000/svg" viewBox="0 0 135.323 37.400" width="135.323" height="37.400" fill="none">
  <g transform="scale(1.168750)">
    <path d="M6.55152 25.4609H0V32H6.55152V25.4609Z" fill="#5652A3"/>
    <path d="M16.3091 25.4609H9.75757V32H16.3091V25.4609Z" fill="#E86035"/>
    <path d="M26.2061 25.4609H19.6545V32H26.2061V25.4609Z" fill="#5652A3"/>
    <path d="M6.55152 15.0261H0V21.5652H6.55152V15.0261Z" fill="#CADB3A"/>
    <path d="M16.3091 15.0261H9.75757V21.5652H16.3091V15.0261Z" fill="#071E22"/>
    <path d="M31.403 14.7506L27.1222 9.80048L22.1627 14.0731L26.4435 19.0233L31.403 14.7506Z" fill="#5652A3"/>
    <path d="M6.55152 4.59131H0V11.1304H6.55152V4.59131Z" fill="#071E22"/>
    <path d="M22.1095 4.0149L16.4359 0.745331L13.1602 6.40822L18.8338 9.67778L22.1095 4.0149Z" fill="#E86035"/>
    <path d="M31.3637 0H24.8121V6.53913H31.3637V0Z" fill="#CADB3A"/>
  </g>
  <g fill="#071E22" transform="translate(48.4423 17.0000) scale(0.024113 -0.024113)">
    <path d="M420.072021484375 -10.62646484375Q300.87939453125 -10.62646484375 218.5 34.0Q136.12060546875 78.62646484375 93.0242919921875 159.62646484375Q49.927978515625 240.62646484375 49.927978515625 350.060302734375Q49.927978515625 462.060302734375 94.6507568359375 544.0301513671875Q139.37353515625 626 223.505859375 670.813232421875Q307.63818359375 715.62646484375 425.336669921875 715.62646484375Q475.0234375 715.62646484375 521.14990234375 706.439697265625Q567.2763671875 697.2529296875 606.589599609375 680.0360107421875Q645.90283203125 662.819091796875 673.589599609375 638.698486328125L624.324951171875 518.33837890625Q577.63818359375 551.892822265625 529.89111328125 566.639892578125Q482.14404296875 581.386962890625 425.963134765625 581.386962890625Q319.2880859375 581.386962890625 265.546875 522.025146484375Q211.8056640625 462.663330078125 211.8056640625 350.060302734375Q211.8056640625 237.39697265625 266.5770263671875 179.1917724609375Q321.348388671875 120.986572265625 428.2646484375 120.986572265625Q463.566162109375 120.986572265625 501.7470703125 128.046875Q539.927978515625 135.107177734375 577.36181640625 147.854248046875L548.289794921875 84.589599609375V277.2294921875H396.313232421875V388.830810546875H676.2763671875V42.62646484375Q641.7705078125 26 599.330810546875 14.186767578125Q556.89111328125 2.37353515625 511.1080322265625 -4.12646484375Q465.324951171875 -10.62646484375 420.072021484375 -10.62646484375Z" transform="translate(0 0)"/>
    <path d="M58.422119140625 0V490.566162109375H205.7939453125V371H195.7939453125Q207.601318359375 431 248.2880859375 463.439697265625Q288.974853515625 495.87939453125 356.348388671875 500.566162109375L399.67333984375 503.87939453125L408.613037109375 376.57958984375L324.39697265625 368.32666015625Q267.468994140625 362.953125 239.7579345703125 334.898681640625Q212.046875 306.84423828125 212.046875 254.2294921875V0Z" transform="translate(742 0)"/>
    <path d="M294.2646484375 -10.62646484375Q215.36129068011886 -10.62646484375 156.8975642853719 20.37353515625Q98.433837890625 51.37353515625 66.0242919921875 109.17636200875947Q33.61474609375 166.97918886126894 33.61474609375 245.61605927438447Q33.61474609375 324.566162109375 66.0242919921875 381.87939453125Q98.433837890625 439.192626953125 156.8975642853719 470.192626953125Q215.36129068011886 501.192626953125 294.2646484375 501.192626953125Q373.4812386167561 501.192626953125 431.7883488005656 470.192626953125Q490.095458984375 439.192626953125 522.5050048828125 381.7478858460771Q554.91455078125 324.3031447390293 554.91455078125 245.62646484375Q554.91455078125 166.9853879238697 522.5050048828125 109.17946154005985Q490.095458984375 51.37353515625 431.7883488005656 20.37353515625Q373.4812386167561 -10.62646484375 294.2646484375 -10.62646484375ZM294.0227680326258 102.227783203125Q342.7470703125 102.227783203125 372.8316650390625 137.5594482421875Q402.916259765625 172.89111328125 402.916259765625 245.9698486328125Q402.916259765625 319.048583984375 372.8316650390625 353.6934814453125Q342.7470703125 388.33837890625 294.0227680326258 388.33837890625Q245.7822265625 388.33837890625 215.6976318359375 353.6934814453125Q185.613037109375 319.048583984375 185.613037109375 245.9698486328125Q185.613037109375 172.89111328125 215.6976318359375 137.5594482421875Q245.7822265625 102.227783203125 294.0227680326258 102.227783203125Z" transform="translate(1154 0)"/>
    <path d="M196.554443359375 0 -3.336669921875 490.566162109375H150.03515625L278.517578125 145.636474609375H256.14404296875L384.433837890625 490.566162109375H483.710205078125L610.939697265625 145.636474609375H591.505859375L718.422119140625 490.566162109375H863.227783203125L664.64990234375 0H537.169189453125L395.7470703125 363.748779296875H460.577880859375L324.03515625 0Z" transform="translate(1743 0)"/>
    <path d="M299.336669921875 -10.62646484375Q194.445556640625 -10.62646484375 143.4698486328125 39.939697265625Q92.494140625 90.505859375 92.494140625 189.830810546875V378.398681640625H-0.566162109375V490.566162109375H92.494140625V635H243.492431640625V490.566162109375H387.733642578125V378.398681640625H243.492431640625V196.204345703125Q243.492431640625 153.842529296875 262.7696533203125 132.974853515625Q282.046875 112.107177734375 324.66162109375 112.107177734375Q337.721923828125 112.107177734375 352.40869140625 115.2939453125Q367.095458984375 118.480712890625 384.348388671875 122.7939453125L405.854248046875 12.939697265625Q385.348388671875 2 356.2822265625 -4.313232421875Q327.216064453125 -10.62646484375 299.336669921875 -10.62646484375Z" transform="translate(2604 0)"/>
    <path d="M58.422119140625 0V705H209.42041015625V398.517578125H194.7939453125Q217.733642578125 448.38525390625 263.2939453125 474.7889404296875Q308.854248046875 501.192626953125 366.601318359375 501.192626953125Q425.601318359375 501.192626953125 463.601318359375 478.7227783203125Q501.601318359375 456.2529296875 520.601318359375 410.5Q539.601318359375 364.7470703125 539.601318359375 294.554443359375V0H388.60302734375V287.927978515625Q388.60302734375 322.169189453125 380.35595703125 343.35009765625Q372.10888671875 364.531005859375 355.5845947265625 374.46484375Q339.060302734375 384.398681640625 313.7587890625 384.398681640625Q282.457275390625 384.398681640625 258.90283203125 370.778076171875Q235.348388671875 357.157470703125 222.3843994140625 332.2596435546875Q209.42041015625 307.36181640625 209.42041015625 274.060302734375V0Z" transform="translate(3008 0)"/>
  </g>
  <g fill="#071E22" transform="translate(48.4423 37.4000) scale(0.024113 -0.024113)">
    <path d="M323.13232421875 -10.62646484375Q267.819091796875 -10.62646484375 216.2227783203125 -1.2830810546875Q164.62646484375 8.060302734375 120.87353515625 25.5904541015625Q77.12060546875 43.12060546875 43.807373046875 67.180908203125L88.7587890625 188.541015625Q120.819091796875 167.107177734375 158.1021728515625 151.233642578125Q195.38525390625 135.360107421875 237.198486328125 126.860107421875Q279.01171875 118.360107421875 323.13232421875 118.360107421875Q395.554443359375 118.360107421875 426.85595703125 140.6314697265625Q458.157470703125 162.90283203125 458.157470703125 197.072021484375Q458.157470703125 216.313232421875 448.7236328125 230.1507568359375Q439.289794921875 243.98828125 417.422119140625 254.2655029296875Q395.554443359375 264.542724609375 359.2529296875 271.60302734375L246.12060546875 295.542724609375Q150.494140625 315.85595703125 103.8375244140625 364.4522705078125Q57.180908203125 413.048583984375 57.180908203125 491.675048828125Q57.180908203125 559.554443359375 93.433837890625 609.807373046875Q129.686767578125 660.060302734375 194.192626953125 687.8433837890625Q258.698486328125 715.62646484375 343.457275390625 715.62646484375Q391.7705078125 715.62646484375 436.89697265625 706.2830810546875Q482.0234375 696.939697265625 520.14990234375 679.066162109375Q558.2763671875 661.192626953125 585.963134765625 636.445556640625L541.01171875 521.651611328125Q500.89111328125 553.519287109375 450.7344970703125 570.07958984375Q400.577880859375 586.639892578125 341.830810546875 586.639892578125Q300.216064453125 586.639892578125 270.66162109375 575.6759033203125Q241.107177734375 564.7119140625 225.6431884765625 544.970703125Q210.17919921875 525.2294921875 210.17919921875 498.554443359375Q210.17919921875 469.7587890625 231.046875 451.704345703125Q251.91455078125 433.64990234375 304.2763671875 422.90283203125L416.721923828125 398.963134765625Q514.7822265625 377.963134765625 562.968994140625 331.39697265625Q611.15576171875 284.830810546875 611.15576171875 208.89111328125Q611.15576171875 143.38525390625 575.7462158203125 93.6624755859375Q540.336669921875 43.939697265625 475.64404296875 16.6566162109375Q410.951416015625 -10.62646484375 323.13232421875 -10.62646484375Z" transform="translate(0 0)"/>
    <path d="M296.951416015625 -10.62646484375Q217.13232421875 -10.62646484375 157.7830810546875 20.7169189453125Q98.433837890625 52.060302734375 66.0242919921875 110.2169189453125Q33.61474609375 168.37353515625 33.61474609375 247Q33.61474609375 325.939697265625 66.0242919921875 382.9095458984375Q98.433837890625 439.87939453125 157.7830810546875 470.5360107421875Q217.13232421875 501.192626953125 296.951416015625 501.192626953125Q344.89111328125 501.192626953125 392.3006591796875 486.9757080078125Q439.710205078125 472.7587890625 470.0234375 447.01171875L427.698486328125 342.783935546875Q403.577880859375 363.278076171875 372.017578125 374.651611328125Q340.457275390625 386.025146484375 311.710205078125 386.025146484375Q252.66162109375 386.025146484375 220.4505615234375 349.7537841796875Q188.239501953125 313.482421875 188.239501953125 246.313232421875Q188.239501953125 180.14404296875 220.4505615234375 142.342529296875Q252.66162109375 104.541015625 311.710205078125 104.541015625Q339.7705078125 104.541015625 371.6741943359375 115.91455078125Q403.577880859375 127.2880859375 427.698486328125 148.468994140625L470.0234375 43.554443359375Q439.710205078125 18.807373046875 391.957275390625 4.0904541015625Q344.204345703125 -10.62646484375 296.951416015625 -10.62646484375Z" transform="translate(641 0)"/>
    <path d="M51.98828125 585.85595703125V726.64990234375H215.16748046875V585.85595703125ZM58.422119140625 0V490.566162109375H209.42041015625V0Z" transform="translate(1119 0)"/>
    <path d="M312.89111328125 -10.62646484375Q226.445556640625 -10.62646484375 163.7830810546875 20.686767578125Q101.12060546875 52 67.36767578125 109.4698486328125Q33.61474609375 166.939697265625 33.61474609375 245.2529296875Q33.61474609375 321.2529296875 66.054443359375 378.566162109375Q98.494140625 435.87939453125 155.560302734375 468.5360107421875Q212.62646484375 501.192626953125 285.505859375 501.192626953125Q357.698486328125 501.192626953125 409.7344970703125 470.566162109375Q461.7705078125 439.939697265625 490.3668212890625 383.8433837890625Q518.963134765625 327.7470703125 518.963134765625 250.807373046875V212.86767578125H158.107177734375V290.819091796875H409.9765625L394.289794921875 277.072021484375Q394.289794921875 338.180908203125 367.7353515625 369.669189453125Q341.180908203125 401.157470703125 292.072021484375 401.157470703125Q255.39697265625 401.157470703125 229.1859130859375 384.163330078125Q202.974853515625 367.169189453125 189.1976318359375 335.2713623046875Q175.42041015625 303.37353515625 175.42041015625 257.819091796875V250.192626953125Q175.42041015625 198.951416015625 190.854248046875 166.2403564453125Q206.2880859375 133.529296875 237.7822265625 117.8785400390625Q269.2763671875 102.227783203125 316.14404296875 102.227783203125Q355.89111328125 102.227783203125 397.0477294921875 114.2579345703125Q438.204345703125 126.2880859375 471.2646484375 150.7822265625L510.963134765625 50.494140625Q474.39697265625 22.433837890625 420.457275390625 5.9036865234375Q366.517578125 -10.62646484375 312.89111328125 -10.62646484375Z" transform="translate(1387 0)"/>
    <path d="M58.422119140625 0V490.566162109375H205.7939453125V398.517578125H194.7939453125Q217.733642578125 448.38525390625 263.2939453125 474.7889404296875Q308.854248046875 501.192626953125 366.601318359375 501.192626953125Q425.601318359375 501.192626953125 463.76653575067934 478.79390920474543Q501.9317531419837 456.3951914563658 520.7665357506794 410.4778200721877Q539.601318359375 364.5604486880095 539.601318359375 294.554443359375V0H388.60302734375V287.927978515625Q388.60302734375 322.169189453125 380.35595703125 343.35009765625Q372.10888671875 364.531005859375 355.6598909818209 374.46484375Q339.21089524489184 384.398681640625 313.7587890625 384.398681640625Q282.457275390625 384.398681640625 258.8277013442096 370.8428236607143Q235.19812729779412 357.2869656808036 222.30926872702207 332.38201729910713Q209.42041015625 307.4770689174107 209.42041015625 274.060302734375V0Z" transform="translate(1936 0)"/>
    <path d="M296.951416015625 -10.62646484375Q217.13232421875 -10.62646484375 157.7830810546875 20.7169189453125Q98.433837890625 52.060302734375 66.0242919921875 110.2169189453125Q33.61474609375 168.37353515625 33.61474609375 247Q33.61474609375 325.939697265625 66.0242919921875 382.9095458984375Q98.433837890625 439.87939453125 157.7830810546875 470.5360107421875Q217.13232421875 501.192626953125 296.951416015625 501.192626953125Q344.89111328125 501.192626953125 392.3006591796875 486.9757080078125Q439.710205078125 472.7587890625 470.0234375 447.01171875L427.698486328125 342.783935546875Q403.577880859375 363.278076171875 372.017578125 374.651611328125Q340.457275390625 386.025146484375 311.710205078125 386.025146484375Q252.66162109375 386.025146484375 220.4505615234375 349.7537841796875Q188.239501953125 313.482421875 188.239501953125 246.313232421875Q188.239501953125 180.14404296875 220.4505615234375 142.342529296875Q252.66162109375 104.541015625 311.710205078125 104.541015625Q339.7705078125 104.541015625 371.6741943359375 115.91455078125Q403.577880859375 127.2880859375 427.698486328125 148.468994140625L470.0234375 43.554443359375Q439.710205078125 18.807373046875 391.957275390625 4.0904541015625Q344.204345703125 -10.62646484375 296.951416015625 -10.62646484375Z" transform="translate(2531 0)"/>
    <path d="M312.89111328125 -10.62646484375Q226.445556640625 -10.62646484375 163.7830810546875 20.686767578125Q101.12060546875 52 67.36767578125 109.4698486328125Q33.61474609375 166.939697265625 33.61474609375 245.2529296875Q33.61474609375 321.2529296875 66.054443359375 378.566162109375Q98.494140625 435.87939453125 155.560302734375 468.5360107421875Q212.62646484375 501.192626953125 285.505859375 501.192626953125Q357.698486328125 501.192626953125 409.7344970703125 470.566162109375Q461.7705078125 439.939697265625 490.3668212890625 383.8433837890625Q518.963134765625 327.7470703125 518.963134765625 250.807373046875V212.86767578125H158.107177734375V290.819091796875H409.9765625L394.289794921875 277.072021484375Q394.289794921875 338.180908203125 367.7353515625 369.669189453125Q341.180908203125 401.157470703125 292.072021484375 401.157470703125Q255.39697265625 401.157470703125 229.1859130859375 384.163330078125Q202.974853515625 367.169189453125 189.1976318359375 335.2713623046875Q175.42041015625 303.37353515625 175.42041015625 257.819091796875V250.192626953125Q175.42041015625 198.951416015625 190.854248046875 166.2403564453125Q206.2880859375 133.529296875 237.7822265625 117.8785400390625Q269.2763671875 102.227783203125 316.14404296875 102.227783203125Q355.89111328125 102.227783203125 397.0477294921875 114.2579345703125Q438.204345703125 126.2880859375 471.2646484375 150.7822265625L510.963134765625 50.494140625Q474.39697265625 22.433837890625 420.457275390625 5.9036865234375Q366.517578125 -10.62646484375 312.89111328125 -10.62646484375Z" transform="translate(3009 0)"/>
  </g>
</svg>
